<?xml version="1.0" encoding="utf-8"?>
<!-- Generator: Adobe Illustrator 13.0.0, SVG Export Plug-In . SVG Version: 6.00 Build 14948)  -->
<!DOCTYPE svg PUBLIC "-//W3C//DTD SVG 1.1//EN" "http://www.w3.org/Graphics/SVG/1.1/DTD/svg11.dtd">
<svg version="1.1" id="Layer_1" xmlns="http://www.w3.org/2000/svg" xmlns:xlink="http://www.w3.org/1999/xlink" x="0px" y="0px"
	 width="294px" height="761px" viewBox="0 0 294 761" enable-background="new 0 0 294 761" xml:space="preserve">
<g>
	<path fill="none" stroke="#FF0000" stroke-width="2" d="M154.385,289.782l-22.98,22.98l-5.216-5.216l22.98-22.98L154.385,289.782z"
		/>
	<path fill="none" stroke="#FF0000" stroke-width="2" d="M164.138,327.901c2.658-2.865,5.897-6.308,9.239-9.649l-0.103-0.103
		c-3.648,2.216-7.876,4.535-11.456,6.342l-11.763,6.171l-4.057-4.057l6.41-11.32c1.978-3.478,4.467-7.535,6.922-11.081l-0.068-0.068
		c-3.239,2.966-6.888,6.409-9.922,9.104l-9.138,8.319l-4.808-4.808l24.446-21.514l6.921,6.921l-5.421,9.922
		c-1.909,3.342-4.091,6.956-6.273,10.16l0.103,0.103c3.308-2.011,7.126-4.262,10.434-6.069l10.092-5.182l6.784,6.784l-21.718,24.242
		l-5.08-5.08L164.138,327.901z"/>
	<path fill="none" stroke="#FF0000" stroke-width="2" d="M175.904,345.464l-7.535,4.262l-5.388-5.388l30.004-15.956l6.819,6.819
		l-15.854,30.105l-5.591-5.591l4.125-7.672L175.904,345.464z M185.621,347.408l3.443-6.308c0.955-1.772,2.251-3.886,3.273-5.592
		l-0.068-0.068c-1.704,1.024-3.784,2.421-5.489,3.376l-6.239,3.512L185.621,347.408z"/>
	<path fill="none" stroke="#FF0000" stroke-width="2" d="M206.422,385.664c-2.148-1.057-5.933-3.341-8.968-6.376
		c-4.193-4.193-6.171-8.284-6.239-12.444c-0.137-4.092,1.705-8.251,5.114-11.593c7.671-7.604,17.594-6.41,25.128,1.125
		c2.966,2.966,4.672,5.831,5.251,7.501l-5.25,3.069c-0.717-1.808-1.842-3.819-4.365-6.342c-4.33-4.33-10.058-5.148-15.035-0.17
		c-4.739,4.739-4.569,10.501-0.308,14.763c1.193,1.193,2.285,2.012,2.898,2.216l4.808-4.807l-3.546-3.546l4.058-4.058l8.558,8.558
		L206.422,385.664z"/>
	<path fill="none" stroke="#FF0000" stroke-width="2" d="M232.814,394.736l-8.456-8.456l-5.456,5.456l9.444,9.444l-4.262,4.262
		l-14.66-14.66l22.98-22.98l14.184,14.184l-4.262,4.262l-8.968-8.967l-4.773,4.773l8.456,8.456L232.814,394.736z"/>
	<path fill="none" stroke="#FF0000" stroke-width="2" d="M46.171,264.021c1.875,1.329,4.33,3.375,7.501,6.546
		c3.205,3.205,4.875,6.103,5.182,8.865c0.307,2.625-0.613,5.523-2.864,7.774c-2.25,2.25-4.909,3.409-7.569,3.341
		c-3.444-0.103-6.819-1.977-9.888-5.046c-0.682-0.682-1.261-1.33-1.671-1.876l-8.217,8.217l-5.148-5.148L46.171,264.021z
		 M40.886,279.603c0.341,0.545,0.853,1.125,1.604,1.876c2.761,2.761,5.864,3.068,8.217,0.716c2.114-2.114,1.909-4.842-0.682-7.433
		c-1.057-1.057-1.876-1.671-2.353-1.944L40.886,279.603z"/>
	<path fill="none" stroke="#FF0000" stroke-width="2" d="M66.29,283.526l5.216,5.216L52.89,307.358l9.138,9.138l-4.364,4.364
		L43.31,306.506L66.29,283.526z"/>
	<path fill="none" stroke="#FF0000" stroke-width="2" d="M72.191,323.59l-7.535,4.262l-5.388-5.388l30.004-15.956l6.819,6.819
		l-15.854,30.105l-5.592-5.592l4.126-7.671L72.191,323.59z M81.908,325.533l3.443-6.308c0.954-1.773,2.25-3.887,3.273-5.592
		l-0.067-0.067c-1.705,1.022-3.785,2.421-5.49,3.375l-6.239,3.512L81.908,325.533z"/>
	<path fill="none" stroke="#FF0000" stroke-width="2" d="M99.98,361.881c-1.432-0.478-4.125-2.08-6.92-4.875
		c-7.945-7.945-7.059-17.014-0.512-23.56c7.842-7.842,17.798-6.614,24.753,0.341c2.694,2.694,4.194,5.285,4.637,6.683l-5.182,3.069
		c-0.614-1.501-1.671-3.376-3.512-5.217c-4.126-4.126-9.82-4.842-14.935,0.272c-4.603,4.603-4.772,10.229-0.136,14.865
		c1.568,1.568,3.648,2.966,5.081,3.581L99.98,361.881z"/>
	<path fill="none" stroke="#FF0000" stroke-width="2" d="M126.133,369.895l-8.456-8.456l-5.455,5.455l9.444,9.444l-4.262,4.262
		l-14.661-14.661l22.98-22.98l14.184,14.184l-4.262,4.262l-8.967-8.967l-4.773,4.773l8.456,8.456L126.133,369.895z"/>
	<path fill="none" stroke="#FF0000" stroke-width="2" d="M149.15,366.386l-8.831,8.831l8.558,8.558l8.831-8.831l5.183,5.183
		l-22.98,22.98l-5.183-5.183l9.615-9.615l-8.558-8.558l-9.615,9.615l-5.216-5.217l22.98-22.98L149.15,366.386z"/>
	<path fill="none" stroke="#FF0000" stroke-width="2" d="M177.213,416.951c-7.535,7.535-16.672,7.535-23.389,0.818
		c-6.819-6.818-5.66-15.956,0.886-22.503c6.888-6.887,16.435-7.637,23.219-0.852C184.986,401.473,183.555,410.609,177.213,416.951z
		 M160.303,400.654c-4.501,4.501-5.558,9.785-2.081,13.263c3.513,3.513,8.865,2.182,13.331-2.284
		c4.126-4.126,5.694-9.649,2.115-13.229C170.155,394.893,164.769,396.188,160.303,400.654z"/>
	<path fill="none" stroke="#FF0000" stroke-width="2" d="M191.877,409.113l5.216,5.216l-18.616,18.615l9.138,9.138l-4.363,4.364
		l-14.354-14.354L191.877,409.113z"/>
	<path fill="none" stroke="#FF0000" stroke-width="2" d="M208.994,426.844c2.216,1.603,4.876,3.921,7.501,6.546
		c4.364,4.364,6.41,7.979,6.955,11.865c0.614,4.159-0.716,8.489-4.773,12.547c-4.398,4.398-9.034,5.831-13.126,5.489
		c-4.432-0.408-9.069-3.136-13.57-7.637c-2.693-2.693-4.432-4.773-5.558-6.24L208.994,426.844z M195.459,450.813
		c0.341,0.546,1.057,1.262,1.704,1.909c4.671,4.739,10.331,5.216,15.82-0.273c4.808-4.739,4.534-10.058,0.068-14.523
		c-1.159-1.159-2.012-1.807-2.557-2.148L195.459,450.813z"/>
	<path fill="none" stroke="#FF0000" stroke-width="2" d="M233.443,477.205l-8.455-8.455l-5.455,5.455l9.444,9.444l-4.262,4.262
		l-14.661-14.661l22.979-22.979l14.184,14.184l-4.262,4.262l-8.967-8.967l-4.773,4.773l8.455,8.455L233.443,477.205z"/>
	<path fill="none" stroke="#FF0000" stroke-width="2" d="M250.937,468.786c1.944,1.397,4.637,3.682,7.398,6.443
		c3.409,3.409,5.285,6.309,5.627,9.24c0.271,2.455-0.581,4.808-2.694,6.921c-2.933,2.933-7.024,2.864-9.718,1.603l-0.103,0.103
		c0.955,2.25,0.308,4.671-1.227,7.365c-1.875,3.307-4.159,7.022-4.603,8.353l-5.319-5.319c0.307-1.057,1.603-3.442,3.751-6.954
		c2.25-3.479,2.046-5.251-0.034-7.399l-1.568-1.568l-9.035,9.035l-5.148-5.148L250.937,468.786z M246.197,483.822l2.046,2.046
		c2.591,2.591,5.421,2.829,7.433,0.817c2.114-2.114,1.739-4.603-0.613-7.023c-1.262-1.262-2.08-1.875-2.523-2.182L246.197,483.822z"
		/>
</g>
<rect x="1" y="1" fill="none" stroke="#E6E6E6" stroke-width="2" width="292" height="759"/>
</svg>
