<?xml version="1.0" encoding="utf-8"?>
<!-- Generator: Adobe Illustrator 13.0.0, SVG Export Plug-In . SVG Version: 6.00 Build 14948)  -->
<!DOCTYPE svg PUBLIC "-//W3C//DTD SVG 1.1//EN" "http://www.w3.org/Graphics/SVG/1.1/DTD/svg11.dtd">
<svg version="1.1" id="Layer_1" xmlns="http://www.w3.org/2000/svg" xmlns:xlink="http://www.w3.org/1999/xlink" x="0px" y="0px"
	 width="1016px" height="759px" viewBox="0 0 1016 759" enable-background="new 0 0 1016 759" xml:space="preserve">
<g>
	<path fill="none" stroke="#FF0000" stroke-width="5" d="M342.028,337.55l-29.564-92.251h22.857l11.224,39.008
		c3.148,10.95,6.022,21.489,8.212,32.986h0.411c2.327-11.087,5.201-22.037,8.349-32.576l11.771-39.419h22.173l-31.07,92.251H342.028
		z"/>
	<path fill="none" stroke="#FF0000" stroke-width="5" d="M428.254,245.299v92.251h-20.941v-92.251H428.254z"/>
	<path fill="none" stroke="#FF0000" stroke-width="5" d="M446.319,246.531c7.665-1.232,17.656-1.916,28.195-1.916
		c17.52,0,28.88,3.148,37.777,9.854c9.581,7.118,15.603,18.478,15.603,34.766c0,17.656-6.433,29.838-15.329,37.366
		c-9.718,8.075-24.5,11.908-42.567,11.908c-10.813,0-18.478-0.684-23.679-1.369V246.531z M467.26,321.81
		c1.779,0.411,4.654,0.411,7.254,0.411c18.888,0.137,31.207-10.265,31.207-32.302c0.137-19.162-11.086-29.291-29.017-29.291
		c-4.654,0-7.665,0.411-9.444,0.821V321.81z"/>
	<path fill="none" stroke="#FF0000" stroke-width="5" d="M596.465,298.542h-33.944v21.899h37.913v17.109h-58.854v-92.251h56.938
		v17.109h-35.997v19.162h33.944V298.542z"/>
	<path fill="none" stroke="#FF0000" stroke-width="5" d="M699.117,290.467c0,30.249-18.341,48.589-45.305,48.589
		c-27.374,0-43.389-20.667-43.389-46.947c0-27.648,17.657-48.315,44.895-48.315C683.65,243.793,699.117,265.008,699.117,290.467z
		 M632.461,291.698c0,18.067,8.485,30.796,22.446,30.796c14.098,0,22.174-13.414,22.174-31.344c0-16.562-7.938-30.796-22.311-30.796
		C640.673,260.355,632.461,273.768,632.461,291.698z"/>
	<path fill="none" stroke="#FF0000" stroke-width="5" d="M65.009,410.773c6.433-1.095,15.466-1.916,28.195-1.916
		c12.866,0,22.036,2.464,28.195,7.391c5.886,4.654,9.855,12.318,9.855,21.353c0,9.033-3.011,16.698-8.486,21.899
		c-7.118,6.706-17.657,9.718-29.975,9.718c-2.737,0-5.201-0.137-7.117-0.411v32.986H65.009V410.773z M85.676,452.656
		c1.779,0.41,3.969,0.548,6.98,0.548c11.086,0,17.93-5.612,17.93-15.057c0-8.485-5.886-13.55-16.288-13.55
		c-4.243,0-7.117,0.41-8.623,0.821V452.656z"/>
	<path fill="none" stroke="#FF0000" stroke-width="5" d="M144.529,409.542h20.941v74.731h36.682v17.52h-57.623V409.542z"/>
	<path fill="none" stroke="#FF0000" stroke-width="5" d="M236.776,478.114l-6.57,23.679h-21.626l28.196-92.251h27.374l28.606,92.251
		H270.31l-7.117-23.679H236.776z M260.181,462.511l-5.749-19.572c-1.643-5.475-3.285-12.318-4.654-17.794h-0.273
		c-1.369,5.476-2.738,12.456-4.243,17.794l-5.475,19.572H260.181z"/>
	<path fill="none" stroke="#FF0000" stroke-width="5" d="M369.402,499.192c-3.832,1.916-12.455,4.106-23.679,4.106
		c-31.891,0-48.315-19.983-48.315-46.263c0-31.48,22.447-49,50.369-49c10.813,0,19.025,2.189,22.721,4.106l-4.243,16.562
		c-4.243-1.779-10.128-3.422-17.52-3.422c-16.562,0-29.427,9.991-29.427,30.522c0,18.478,10.95,30.111,29.564,30.111
		c6.296,0,13.277-1.369,17.383-3.012L369.402,499.192z"/>
	<path fill="none" stroke="#FF0000" stroke-width="5" d="M437.972,462.784h-33.944v21.899h37.914v17.109h-58.854v-92.251h56.938
		v17.108h-35.998v19.162h33.944V462.784z"/>
	<path fill="none" stroke="#FF0000" stroke-width="5" d="M477.115,409.542v35.449h34.354v-35.449h20.805v92.251H511.47v-38.598
		h-34.354v38.598h-20.941v-92.251H477.115z"/>
	<path fill="none" stroke="#FF0000" stroke-width="5" d="M634.926,454.709c0,30.249-18.341,48.59-45.305,48.59
		c-27.374,0-43.389-20.668-43.389-46.947c0-27.647,17.657-48.315,44.895-48.315C619.459,408.036,634.926,429.251,634.926,454.709z
		 M568.27,455.941c0,18.066,8.485,30.796,22.446,30.796c14.098,0,22.174-13.413,22.174-31.344c0-16.562-7.938-30.796-22.311-30.796
		C576.481,424.598,568.27,438.011,568.27,455.941z"/>
	<path fill="none" stroke="#FF0000" stroke-width="5" d="M648.61,409.542h20.941v74.731h36.682v17.52H648.61V409.542z"/>
	<path fill="none" stroke="#FF0000" stroke-width="5" d="M718.548,410.773c7.665-1.231,17.656-1.916,28.196-1.916
		c17.52,0,28.879,3.148,37.776,9.854c9.581,7.117,15.603,18.478,15.603,34.766c0,17.656-6.433,29.838-15.329,37.366
		c-9.718,8.075-24.5,11.907-42.567,11.907c-10.813,0-18.478-0.685-23.679-1.368V410.773z M739.489,486.053
		c1.779,0.41,4.654,0.41,7.255,0.41c18.888,0.138,31.206-10.265,31.206-32.301c0.137-19.162-11.087-29.291-29.017-29.291
		c-4.653,0-7.665,0.411-9.444,0.821V486.053z"/>
	<path fill="none" stroke="#FF0000" stroke-width="5" d="M868.694,462.784H834.75v21.899h37.914v17.109h-58.855v-92.251h56.938
		v17.108H834.75v19.162h33.944V462.784z"/>
	<path fill="none" stroke="#FF0000" stroke-width="5" d="M886.896,410.773c6.707-1.095,16.698-1.916,27.785-1.916
		c13.688,0,23.269,2.053,29.838,7.254c5.475,4.38,8.486,10.813,8.486,19.299c0,11.771-8.35,19.847-16.288,22.721v0.411
		c6.434,2.601,9.992,8.76,12.318,17.245c2.875,10.402,5.749,22.447,7.528,26.006h-21.353c-1.505-2.737-3.695-10.129-6.433-21.489
		c-2.464-11.497-6.433-14.645-14.919-14.781h-6.296v36.271h-20.668V410.773z M907.564,450.466h8.212
		c10.402,0,16.562-5.201,16.562-13.276c0-8.485-5.748-12.729-15.329-12.865c-5.064,0-7.938,0.41-9.444,0.684V450.466z"/>
</g>
<rect x="2.5" y="2.5" fill="none" stroke="#B2B2B2" stroke-width="5" width="1011" height="754"/>
</svg>
